<?xml version="1.0" encoding="utf-8"?>
<!-- Generator: Adobe Illustrator 28.3.0, SVG Export Plug-In . SVG Version: 6.00 Build 0)  -->
<svg version="1.1" id="Layer_1" xmlns="http://www.w3.org/2000/svg" xmlns:xlink="http://www.w3.org/1999/xlink" x="0px" y="0px"
	 viewBox="0 0 287.77 287.69" style="enable-background:new 0 0 287.77 287.69;" xml:space="preserve">
<style type="text/css">
	.st0{fill-rule:evenodd;clip-rule:evenodd;fill:#4B92DB;}
	.st1{fill:#FFFFFF;}
	.st2{fill:#231F20;}
</style>
<path class="st0" d="M222.95,116.13c-4.22,1.35-8.43,0.18-9.8-2.9c-1.37-3.07,0.58-6.99,4.4-9.22c-0.33-0.61-0.67-1.21-1.02-1.82
	c-0.35-0.6-0.7-1.2-1.06-1.79c-3.84,2.19-8.21,1.92-10.18-0.8c-1.98-2.72-0.89-6.96,2.39-9.94c-0.91-1.06-1.83-2.09-2.78-3.1
	c-3.3,2.95-7.63,3.6-10.14,1.34c-2.5-2.25-2.31-6.63,0.28-10.23c-1.11-0.84-2.23-1.66-3.37-2.45c-2.62,3.57-6.72,5.11-9.64,3.42
	c-2.91-1.68-3.64-6-1.86-10.05c-1.25-0.6-2.52-1.16-3.81-1.69c-1.82,4.03-5.51,6.37-8.71,5.34c-3.2-1.04-4.81-5.11-3.91-9.44
	c-1.35-0.32-2.71-0.61-4.07-0.87c-0.94,4.32-4.06,7.38-7.41,7.03c-3.35-0.35-5.77-4-5.79-8.43c-1.38-0.04-2.77-0.04-4.16,0
	c-0.02,4.43-2.44,8.08-5.79,8.43c-3.35,0.35-6.48-2.72-7.41-7.05c-1.36,0.25-2.72,0.54-4.07,0.87c0.9,4.34-0.7,8.41-3.91,9.45
	c-3.2,1.04-6.9-1.31-8.71-5.34c-1.27,0.53-2.54,1.1-3.8,1.7c1.78,4.05,1.05,8.36-1.86,10.04c-2.91,1.68-7.01,0.15-9.63-3.41
	c-1.15,0.79-2.28,1.6-3.37,2.44c2.59,3.59,2.77,7.96,0.27,10.22c-2.5,2.26-6.84,1.61-10.14-1.34c-0.96,1.01-1.89,2.04-2.79,3.1
	c3.28,2.97,4.38,7.22,2.4,9.94c-1.98,2.73-6.35,2.99-10.2,0.79c-0.72,1.19-1.41,2.39-2.08,3.61c3.82,2.23,5.77,6.15,4.41,9.23
	c-1.37,3.07-5.58,4.25-9.79,2.9c-0.46,1.31-0.89,2.63-1.29,3.96c0.11,0.03,0.21,0.08,0.31,0.11h52.89
	c6.61-7.26,16.14-11.82,26.74-11.82s20.12,4.56,26.74,11.82h52.71c0.11-0.04,0.21-0.08,0.33-0.12
	C223.84,118.76,223.41,117.44,222.95,116.13z"/>
<path class="st0" d="M223.92,167.49H172.4c-6.63,8.06-16.68,13.2-27.93,13.2s-21.3-5.14-27.93-13.2h-51.7
	c-0.11,0.04-0.21,0.08-0.32,0.12c0.4,1.32,0.83,2.64,1.29,3.96c4.22-1.35,8.43-0.18,9.8,2.9c1.37,3.07-0.58,6.99-4.4,9.22
	c0.33,0.61,0.67,1.21,1.02,1.82c0.35,0.6,0.7,1.2,1.06,1.79c3.84-2.19,8.21-1.92,10.18,0.8c1.98,2.72,0.89,6.96-2.39,9.94
	c0.9,1.06,1.83,2.09,2.78,3.1c3.3-2.95,7.63-3.6,10.14-1.34c2.5,2.25,2.31,6.63-0.28,10.22c1.1,0.84,2.23,1.66,3.37,2.45
	c2.61-3.58,6.72-5.11,9.64-3.42c2.91,1.68,3.64,6,1.86,10.05c1.26,0.59,2.52,1.16,3.81,1.69c1.82-4.03,5.51-6.38,8.71-5.34
	c3.2,1.04,4.81,5.11,3.91,9.44c1.35,0.32,2.71,0.61,4.07,0.87c0.94-4.32,4.06-7.38,7.41-7.03c3.35,0.35,5.77,4,5.79,8.43
	c1.39,0.04,2.77,0.04,4.16,0c0.02-4.43,2.44-8.08,5.79-8.43c3.35-0.35,6.48,2.72,7.41,7.05c1.36-0.25,2.72-0.54,4.07-0.87
	c-0.91-4.34,0.7-8.41,3.91-9.45c3.2-1.04,6.89,1.31,8.71,5.34c1.28-0.53,2.54-1.1,3.8-1.7c-1.78-4.05-1.05-8.36,1.86-10.04
	c2.91-1.68,7.01-0.15,9.63,3.41c1.15-0.79,2.28-1.6,3.37-2.44c-2.59-3.59-2.77-7.97-0.27-10.22c2.5-2.26,6.84-1.61,10.14,1.34
	c0.96-1.01,1.89-2.04,2.79-3.09c-3.28-2.98-4.38-7.22-2.4-9.94c1.98-2.73,6.35-3,10.2-0.79c0.72-1.19,1.42-2.39,2.08-3.61
	c-3.83-2.23-5.77-6.15-4.41-9.22c1.37-3.07,5.58-4.25,9.79-2.9c0.46-1.31,0.89-2.63,1.29-3.96
	C224.12,167.57,224.02,167.53,223.92,167.49z"/>
<g>
	<path class="st1" d="M101.6,102.41l1.39-1.24l3.76,1.11l-0.67-3.86l1.39-1.24l5.24,5.88l-1.28,1.15l-3.42-3.84l0.59,3.99
		l-0.03,0.03l-3.85-1.02l3.4,3.81l-1.27,1.13L101.6,102.41z"/>
	<path class="st1" d="M114.52,97l-0.01-0.02c-1.05-1.98-0.35-4.42,1.79-5.57c2.15-1.14,4.54-0.36,5.59,1.62l0.01,0.02
		c1.05,1.98,0.35,4.42-1.79,5.57C117.96,99.76,115.57,98.98,114.52,97z M120.31,93.93l-0.01-0.02c-0.63-1.19-2.04-1.72-3.27-1.07
		c-1.23,0.65-1.57,2.08-0.94,3.27l0.01,0.02c0.63,1.19,2.04,1.72,3.27,1.07C120.6,96.54,120.94,95.12,120.31,93.93z"/>
	<path class="st1" d="M126.98,91.77l-1.14-4.35l1.68-0.44l1.13,4.31c0.33,1.24,1.11,1.72,2.14,1.45c1.02-0.27,1.48-1.05,1.16-2.26
		l-1.14-4.36l1.68-0.44l1.13,4.3c0.6,2.31-0.39,3.78-2.44,4.31C129.12,94.82,127.57,94.01,126.98,91.77z"/>
	<path class="st1" d="M138.87,84.74l1.6-0.05l3.85,4.73l-0.16-4.85l1.71-0.06l0.26,7.87l-1.47,0.05l-3.98-4.88l0.16,5l-1.71,0.06
		L138.87,84.74z"/>
	<path class="st1" d="M153.88,86.97l-2.36-0.43l0.28-1.57l6.42,1.16l-0.28,1.57l-2.36-0.43l-1.12,6.17l-1.7-0.31L153.88,86.97z"/>
	<path class="st1" d="M165.42,88.35l1.49,0.58l0.25,8.61l-1.69-0.66l-0.03-1.91l-3.1-1.21l-1.31,1.38l-1.64-0.64L165.42,88.35z
		 M165.43,93.33l-0.04-2.76l-1.91,1.99L165.43,93.33z"/>
	<path class="st1" d="M175.04,93.05l1.47,0.91l-4.14,6.7l-1.47-0.91L175.04,93.05z"/>
	<path class="st1" d="M181.75,97.6l1.19,1.07l-0.5,6.07l3.24-3.6l1.27,1.14l-5.27,5.85l-1.1-0.99l0.51-6.27l-3.35,3.72l-1.27-1.14
		L181.75,97.6z"/>
</g>
<g>
	<path class="st1" d="M106.1,180.73l2.67,2.49c0.66,0.61,1.01,1.28,1.03,1.91c0.02,0.51-0.15,0.95-0.52,1.35l-0.02,0.02
		c-0.61,0.65-1.29,0.69-1.91,0.53c0.43,0.88,0.48,1.65-0.24,2.42l-0.02,0.02c-0.98,1.05-2.33,0.78-3.62-0.43l-2.73-2.56
		L106.1,180.73z M105.64,186.62l-1.46-1.37l-1.18,1.26l1.5,1.4c0.56,0.52,1.08,0.64,1.48,0.21l0.02-0.02
		C106.36,187.73,106.29,187.23,105.64,186.62z M107.82,185.52c0.35-0.38,0.26-0.87-0.28-1.37l-1.25-1.17l-1.14,1.21l1.17,1.09
		c0.56,0.52,1.08,0.67,1.48,0.24L107.82,185.52z"/>
	<path class="st1" d="M114.6,187.85l1.45,0.96l-4.35,6.57l-1.45-0.96L114.6,187.85z"/>
	<path class="st1" d="M120.22,191.32l1.58,0.7l-1.39,3.15l4.29-1.87l1.94,0.86l-4.29,1.76l1.24,5.5l-1.9-0.84l-0.88-4.05l-1.21,0.5
		l-0.97,2.2l-1.58-0.7L120.22,191.32z"/>
	<path class="st1" d="M130.49,195.28l5.81,1.25l-0.32,1.51l-4.13-0.89l-0.34,1.56l3.63,0.78l-0.32,1.51l-3.63-0.78l-0.35,1.62
		l4.18,0.9l-0.32,1.51l-5.86-1.26L130.49,195.28z"/>
	<path class="st1" d="M149.12,198.45l-2.38,0.24l-0.16-1.59l6.49-0.66l0.16,1.59l-2.38,0.24l0.64,6.24l-1.72,0.18L149.12,198.45z"/>
	<path class="st1" d="M157.13,195.56l5.68-1.74l0.45,1.47l-4.03,1.24l0.47,1.53l3.55-1.09l0.45,1.47l-3.55,1.09l0.48,1.58l4.09-1.25
		l0.45,1.47l-5.73,1.76L157.13,195.56z"/>
	<path class="st1" d="M169.21,190.78l1.4-0.78l6.8,5.29l-1.58,0.88l-1.49-1.19l-2.91,1.62l0.23,1.89l-1.54,0.86L169.21,190.78z
		 M173.05,193.94l-2.15-1.72l0.33,2.74L173.05,193.94z"/>
	<path class="st1" d="M176.8,186.06l1.38-1.25l3.77,1.08l-0.7-3.86l1.38-1.25l5.29,5.83l-1.27,1.16l-3.45-3.81l0.62,3.98l-0.03,0.03
		l-3.86-0.99l3.43,3.78l-1.26,1.14L176.8,186.06z"/>
</g>
<g>
	<path class="st2" d="M5.36,157.51v-28.63h6.66v11.1h20.8v-11.1h6.72v28.63h-6.72v-12.32h-20.8v12.32H5.36z"/>
	<path class="st2" d="M53.05,157.51v-28.63h29.3v4.87H59.71v6.39h13.22v4.88H59.71v7.1h22.91v5.39H53.05z"/>
	<path class="st2" d="M93.76,157.51v-28.63h4.55l20.15,16.87c0.69,0.56,1.29,1.09,1.81,1.58c0.52,0.5,1,1.01,1.44,1.53
		c-0.11-1.61-0.18-2.74-0.22-3.41c-0.04-0.67-0.05-1.18-0.05-1.54v-15.03h5.99v28.63h-4.55l-21.02-17.68
		c-0.51-0.45-0.95-0.86-1.33-1.22c-0.38-0.36-0.73-0.73-1.06-1.11c0.09,0.88,0.16,1.72,0.2,2.5c0.04,0.79,0.07,1.47,0.07,2.04v15.46
		H93.76z"/>
	<path class="st2" d="M140.91,157.51v-28.63h24.48c2.27,0,3.92,0.44,4.94,1.31c1.02,0.88,1.53,2.29,1.53,4.24v6.72
		c0,1.93-0.51,3.34-1.53,4.23c-1.02,0.88-2.67,1.33-4.94,1.33h-3.74l13.22,10.81h-9.56l-11.54-10.81h-6.31v10.81H140.91z
		 M162.44,133.84h-14.98v7.96h14.98c1.16,0,1.95-0.17,2.37-0.5c0.42-0.33,0.64-0.92,0.64-1.77v-3.44c0-0.83-0.21-1.41-0.64-1.75
		C164.38,134.01,163.59,133.84,162.44,133.84z"/>
	<path class="st2" d="M184.27,157.51v-28.63h6.66v28.63H184.27z"/>
	<path class="st2" d="M228.47,134h-17.96v18.12h17.96v-6.15l6.66,1.38v3.39c0,2.62-0.49,4.4-1.48,5.35
		c-0.98,0.95-2.86,1.42-5.62,1.42h-17.09c-2.78,0-4.66-0.47-5.63-1.42c-0.97-0.95-1.46-2.73-1.46-5.35v-15.08
		c0-2.6,0.49-4.38,1.46-5.34c0.98-0.96,2.85-1.44,5.63-1.44h17.09c2.76,0,4.64,0.48,5.62,1.44c0.98,0.96,1.48,2.74,1.48,5.34v2.71
		l-6.66,1.06V134z"/>
	<path class="st2" d="M247.16,135.66c0-2.6,0.49-4.38,1.46-5.34c0.98-0.96,2.85-1.44,5.63-1.44h21.07c2.78,0,4.66,0.48,5.63,1.44
		c0.98,0.96,1.46,2.74,1.46,5.34v15.08c0,2.62-0.49,4.4-1.46,5.35s-2.85,1.42-5.63,1.42h-21.07c-2.78,0-4.66-0.47-5.63-1.42
		c-0.97-0.95-1.46-2.73-1.46-5.35V135.66z M253.82,152.12h21.96V134h-21.96V152.12z"/>
</g>
</svg>
