<?xml version="1.0" encoding="UTF-8"?>
<svg id="Layer_1" xmlns="http://www.w3.org/2000/svg" version="1.1" viewBox="0 0 287.7748 287.6941">
  <!-- Generator: Adobe Illustrator 29.3.0, SVG Export Plug-In . SVG Version: 2.1.0 Build 146)  -->
  <defs>
    <style>
      .st0 {
        fill: #4b92db;
        fill-rule: evenodd;
      }

      .st1 {
        fill: #fff;
      }
    </style>
  </defs>
  <path class="st0" d="M222.9499,116.1292c-4.217,1.3515-8.4341.1758-9.8048-2.8982-1.3682-3.0741.5776-6.99,4.3982-9.2205-.3324-.6078-.6703-1.2128-1.0191-1.8164-.3488-.6036-.7032-1.1991-1.0629-1.7904-3.8409,2.1937-8.2067,1.9199-10.1838-.8011-1.9785-2.7238-.8857-6.9641,2.3926-9.9385-.9061-1.0615-1.8339-2.0943-2.7849-3.0986-3.3001,2.9512-7.6343,3.5959-10.1375,1.3422-2.5031-2.2536-2.3136-6.6331.278-10.2261-1.1064-.8447-2.2291-1.6609-3.371-2.4457-2.6161,3.5739-6.7202,5.1056-9.6387,3.4226-2.9133-1.6827-3.6408-5.9952-1.8599-10.0462-1.2549-.5952-2.5248-1.158-3.8057-1.6893-1.8203,4.0289-5.5102,6.3738-8.7095,5.3358-3.1993-1.0411-4.8069-5.1069-3.9092-9.4359-1.3503-.3229-2.7101-.6103-4.0739-.8651-.9415,4.3192-4.0633,7.3809-7.4083,7.028-3.3492-.3516-5.7692-4.0005-5.7881-8.4274-1.3844-.0368-2.7744-.0382-4.1641-.0042-.0151,4.4285-2.4364,8.08-5.7856,8.4316-3.3503.353-6.4777-2.7183-7.4122-7.0472-1.3626.2548-2.7196.5439-4.0742.8682.9047,4.3356-.7029,8.4095-3.9051,9.4507-3.2018,1.0408-6.8973-1.3082-8.7148-5.3428-1.2742.5302-2.5427,1.0984-3.8016,1.6992,1.7795,4.0482,1.0546,8.3621-1.8613,10.0448-2.9133,1.683-7.0118.1541-9.6279-3.4103-1.15.7889-2.2757,1.6037-3.3738,2.4431,2.586,3.5903,2.7741,7.9641.2712,10.2164-2.5031,2.255-6.8359,1.609-10.1388-1.3436-.9566,1.011-1.8859,2.0427-2.788,3.0958,3.2811,2.9744,4.3766,7.2174,2.3968,9.9426-1.9785,2.7252-6.351,2.9948-10.196.7945-.7236,1.1868-1.4142,2.3912-2.0764,3.6093,3.8233,2.2294,5.7744,6.1492,4.4051,9.226-1.3693,3.0713-5.5797,4.2458-9.7928,2.8994-.4604,1.311-.8896,2.6312-1.2861,3.9625.1057.0349.206.0766.3097.114h52.8909c6.6118-7.2613,16.141-11.8192,26.7352-11.8192s20.1234,4.5579,26.7352,11.8192h52.7075c.1091-.0394.2148-.083.326-.1196-.3965-1.3258-.8257-2.646-1.2903-3.9595Z"/>
  <path class="st0" d="M223.9197,167.4886h-51.5195c-6.6299,8.0586-16.6786,13.1985-27.9286,13.1985s-21.2987-5.1399-27.9286-13.1985h-51.702c-.1076.0388-.2119.082-.3216.118.3951,1.3244.8257,2.6448,1.2917,3.9584,4.2156-1.3517,8.4344-.1772,9.8036,2.8983,1.3679,3.0737-.579,6.9897-4.3984,9.2191.3326.6089.6716,1.2139,1.019,1.8174.3477.6025.7032,1.1991,1.0643,1.7904,3.8398-2.1936,8.2053-1.9196,10.1838.8015,1.9785,2.7222.8857,6.9641-2.3926,9.9399.9047,1.0587,1.8326,2.0915,2.7836,3.0969,3.3018-2.9513,7.6346-3.5956,10.1377-1.342,2.5029,2.2537,2.3148,6.6328-.2768,10.2245,1.1036.845,2.2266,1.6624,3.3699,2.4473,2.6147-3.5755,6.7213-5.107,9.6373-3.4229,2.9144,1.6827,3.6433,5.9965,1.8613,10.0461,1.2563.5941,2.5235,1.1584,3.8069,1.6911,1.8177-4.0306,5.5076-6.377,8.7095-5.3372,3.198,1.0409,4.8073,5.107,3.9079,9.4357,1.3517.3228,2.7087.6105,4.0742.8667.9429-4.3209,4.063-7.3809,7.4094-7.0296,3.3492.3516,5.7691,4.0005,5.7856,8.4277,1.3872.0366,2.774.038,4.1641.0039.0162-4.4283,2.4361-8.08,5.7867-8.4316,3.3506-.3513,6.4763,2.7185,7.4136,7.0472,1.3612-.2548,2.7196-.5422,4.0728-.8665-.9061-4.3356.7018-8.4112,3.9064-9.4521,3.2021-1.0411,6.8946,1.3079,8.7123,5.3425,1.2753-.5299,2.5438-1.0967,3.8015-1.6992-1.7781-4.0482-1.052-8.3621,1.8613-10.0447,2.9144-1.6827,7.0145-.1541,9.6307,3.4106,1.15-.7889,2.2754-1.6038,3.3734-2.4417-2.5859-3.5931-2.774-7.9656-.2723-10.2178,2.5031-2.255,6.8373-1.6107,10.1403,1.3434.9563-1.011,1.8856-2.0424,2.7863-3.0944-3.2825-2.9758-4.3778-7.2188-2.3968-9.9438,1.9799-2.7252,6.3524-2.9951,10.196-.7944.7236-1.1868,1.4156-2.3915,2.0781-3.6096-3.8261-2.2277-5.7747-6.1492-4.4066-9.2244,1.3679-3.0741,5.5811-4.2472,9.7925-2.9025.4621-1.3093.8927-2.6298,1.2878-3.9595-.1043-.0345-.2034-.0757-.3058-.1127Z"/>
  <g>
    <path class="st1" d="M101.5991,102.4114l1.3931-1.2437,3.7617,1.1055-.6733-3.8628,1.3931-1.2437,5.2446,5.875-1.2842,1.146-3.4238-3.8354.5869,3.9854-.0337.0303-3.854-1.0234,3.4014,3.8101-1.2671,1.1313-5.2446-5.8745Z"/>
    <path class="st1" d="M114.5171,97.0027l-.0103-.0195c-1.0508-1.9771-.3516-4.4248,1.7939-5.5654,2.1455-1.1401,4.5352-.3594,5.5859,1.6172l.0107.02c1.0503,1.9771.3516,4.4248-1.7939,5.5654-2.146,1.1401-4.5356.3594-5.5864-1.6177ZM120.3086,93.9251l-.0107-.02c-.6333-1.1919-2.0356-1.7207-3.2671-1.0659-1.2319.6543-1.5688,2.082-.9351,3.2739l.0103.02c.6338,1.1919,2.0356,1.7207,3.2676,1.0659,1.2314-.6548,1.5684-2.082.9351-3.2739Z"/>
    <path class="st1" d="M126.9775,91.7664l-1.1411-4.3516,1.6753-.4395,1.1299,4.3081c.3257,1.2402,1.1138,1.7197,2.1367,1.4512,1.0225-.2681,1.48-1.0508,1.1631-2.2583l-1.144-4.3628,1.6753-.4395,1.1274,4.2974c.605,2.3066-.3931,3.7773-2.4385,4.314-2.0454.5361-3.5962-.2778-4.1841-2.519Z"/>
    <path class="st1" d="M138.8681,84.7376l1.5967-.0518,3.8467,4.7266-.1582-4.8467,1.7095-.0557.2563,7.8716-1.4731.0483-3.9751-4.8804.1626,5.0044-1.709.0557-.2563-7.8721Z"/>
    <path class="st1" d="M153.8838,86.9652l-2.356-.4258.2837-1.5708,6.4165,1.1592-.2842,1.5708-2.3564-.4258-1.1152,6.1733-1.7036-.3081,1.1152-6.1729Z"/>
    <path class="st1" d="M165.4243,88.3524l1.4863.583.2466,8.6108-1.6851-.6606-.0259-1.9062-3.0981-1.2148-1.3145,1.3809-1.6431-.6445,6.0337-6.1484ZM165.4292,93.3299l-.042-2.7578-1.9053,1.9946,1.9473.7632Z"/>
    <path class="st1" d="M175.0434,93.0526l1.4731.9116-4.1445,6.6973-1.4731-.9121,4.1445-6.6968Z"/>
    <path class="st1" d="M181.7466,97.597l1.1875,1.0679-.4995,6.0713,3.2422-3.6035,1.271,1.1431-5.2661,5.8535-1.0952-.9854.5127-6.2715-3.3472,3.7212-1.2715-1.1436,5.2661-5.853Z"/>
  </g>
  <g>
    <path class="st1" d="M106.104,180.7288l2.668,2.4941c.6567.6143,1.0054,1.2783,1.0269,1.9136.0171.5083-.1509.9512-.5195,1.3452l-.0151.0166c-.6064.6484-1.2891.6875-1.9146.5337.4272.876.4771,1.6455-.2446,2.417l-.0151.0166c-.9824,1.0508-2.3276.7778-3.6245-.4346l-2.7339-2.5562,5.3726-5.7461ZM105.6421,186.6199l-1.4609-1.3662-1.1821,1.2646,1.5024,1.4043c.5581.522,1.0791.6396,1.478.2129l.0151-.0166c.3608-.3857.2964-.8926-.3525-1.499ZM107.8237,185.5208c.353-.3774.2573-.8672-.2764-1.3662l-1.248-1.1665-1.1357,1.2148,1.1655,1.0898c.5581.522,1.0801.6714,1.4795.2446l.0151-.0166Z"/>
    <path class="st1" d="M114.5996,187.847l1.4453.9565-4.3472,6.5688-1.4453-.9565,4.3472-6.5688Z"/>
    <path class="st1" d="M120.2212,191.3196l1.584.6978-1.3867,3.147,4.2866-1.8687,1.9438.8564-4.2871,1.7583,1.2383,5.4951-1.9028-.8384-.8809-4.0483-1.2139.4971-.9697,2.2007-1.584-.6978,3.1724-7.1992Z"/>
    <path class="st1" d="M130.4946,195.2801l5.8091,1.249-.3242,1.5068-4.1255-.8867-.3359,1.562,3.6304.7808-.3237,1.5073-3.6304-.7808-.3477,1.6172,4.1802.8989-.3237,1.5073-5.8638-1.2607,1.6553-7.7012Z"/>
    <path class="st1" d="M149.1176,198.4476l-2.3823.2441-.1626-1.5884,6.4873-.6636.1626,1.5879-2.3823.2437.6382,6.2412-1.7222.1763-.6387-6.2412Z"/>
    <path class="st1" d="M157.1342,195.5638l5.6797-1.7402.4517,1.4736-4.0342,1.2363.4683,1.5273,3.5498-1.0874.4517,1.4736-3.5503,1.0874.4849,1.5815,4.0879-1.2524.4512,1.4736-5.7334,1.7568-2.3071-7.5303Z"/>
    <path class="st1" d="M169.2104,190.7752l1.3955-.7754,6.7993,5.2886-1.582.8799-1.4868-1.1934-2.9087,1.6167.229,1.8926-1.543.8574-.9033-8.5664ZM173.0532,193.9388l-2.1538-1.7227.3262,2.7388,1.8276-1.0161Z"/>
    <path class="st1" d="M176.7978,186.0604l1.3828-1.2539,3.769,1.0762-.7026-3.8555,1.3828-1.2539,5.2871,5.832-1.2749,1.1553-3.4517-3.8071.6172,3.979-.0332.0303-3.8604-.9937,3.4292,3.7827-1.2583,1.1406-5.2871-5.832Z"/>
  </g>
  <g>
    <path class="st1" d="M5.3579,157.5115v-28.626h6.6626v11.1035h20.7993v-11.1035h6.7163v28.626h-6.7163v-12.3223H12.0205v12.3223h-6.6626Z"/>
    <path class="st1" d="M53.0512,157.5115v-28.626h29.3032v4.8745h-22.6406v6.3916h13.2163v4.875h-13.2163v7.0957h22.9116v5.3892h-29.5742Z"/>
    <path class="st1" d="M93.7573,157.5115v-28.626h4.5498l20.1489,16.8721c.686.5601,1.291,1.0879,1.8145,1.5845.5239.4966,1.0024,1.0068,1.4355,1.5303-.1084-1.6069-.1807-2.7441-.2168-3.4126-.0361-.6675-.0542-1.1821-.0542-1.5435v-15.0308h5.9854v28.626h-4.5498l-21.0161-17.6846c-.5054-.4512-.9478-.8574-1.3267-1.2188-.3794-.3613-.7314-.7314-1.0562-1.1104.0898.8848.1577,1.7197.2031,2.5049.0444.7856.0674,1.4673.0674,2.0449v15.4639h-5.9849Z"/>
    <path class="st1" d="M140.9087,157.5115v-28.626h24.4829c2.2749,0,3.9219.438,4.9424,1.3135,1.0195.876,1.5303,2.2886,1.5303,4.2383v6.7163c0,1.9321-.5107,3.3408-1.5303,4.2251-1.0205.8848-2.6675,1.3271-4.9424,1.3271h-3.7378l13.2163,10.8057h-9.5601l-11.5371-10.8057h-6.3101v10.8057h-6.5542ZM162.4394,133.8416h-14.9766v7.9619h14.9766c1.1553,0,1.9453-.1665,2.3696-.501.4238-.3335.6367-.9248.6367-1.7739v-3.4395c0-.8301-.2129-1.4121-.6367-1.7466-.4243-.334-1.2144-.501-2.3696-.501Z"/>
    <path class="st1" d="M184.2685,157.5115v-28.626h6.6626v28.626h-6.6626Z"/>
    <path class="st1" d="M228.4682,134.0042h-17.9556v18.1182h17.9556v-6.1479l6.6621,1.3813v3.3853c0,2.6182-.4922,4.4009-1.4761,5.3486-.9844.9478-2.8569,1.4219-5.6196,1.4219h-17.0889c-2.7808,0-4.6582-.4741-5.6333-1.4219-.9746-.9478-1.4624-2.7305-1.4624-5.3486v-15.085c0-2.6001.4878-4.3779,1.4624-5.3354.9751-.9565,2.8525-1.4351,5.6333-1.4351h17.0889c2.7627,0,4.6353.4785,5.6196,1.4351.9839.9575,1.4761,2.7354,1.4761,5.3354v2.708l-6.6621,1.0566v-5.4165Z"/>
    <path class="st1" d="M247.1557,135.6561c0-2.6001.4878-4.3779,1.4624-5.3354.9751-.9565,2.8525-1.4351,5.6333-1.4351h21.0703c2.7798,0,4.6577.4785,5.6328,1.4351.9751.9575,1.4624,2.7354,1.4624,5.3354v15.085c0,2.6182-.4873,4.4009-1.4624,5.3486s-2.853,1.4219-5.6328,1.4219h-21.0703c-2.7808,0-4.6582-.4741-5.6333-1.4219-.9746-.9478-1.4624-2.7305-1.4624-5.3486v-15.085ZM253.8183,152.1224h21.9634v-18.1182h-21.9634v18.1182Z"/>
  </g>
</svg>